# xmcd
#
# Track frame offsets:
#	150
#	16793
#	33819
#
# Disc length: 647 seconds
# Revision: 0
# Processed by: cddbd v1.5.2PL0 Copyright (c) Steve Scherf et al.
# Submitted via: dBpowerAMP V12.0
#
DISCID=12028503
DTITLE=Mel Sommers - Mel Sommers Originals
DYEAR=2001
DGENRE=Country
TTITLE0=Come December
TTITLE1=Mr Johnson's Daughter
TTITLE2=An Absolute Roo's Tale
EXTD=
EXTT0=
EXTT1=
EXTT2=
PLAYORDER=
